# xmcd
#
# Track frame offsets:
#	150
#	21071
#	39605
#	60868
#	77486
#	94529
#	113917
#	130516
#	152044
#	167333
#
# Disc length: 2386 seconds
# Revision: 0
# Processed by: cddbd v1.5.2PL0 Copyright (c) Steve Scherf et al.
# Submitted via: dBpowerAMP V12.0
#
DISCID=6309500a
DTITLE=Pure Grain - Sowing Seeds
DYEAR=2011
DGENRE=Americana
TTITLE0=Cowgirl
TTITLE1=Love is Gone
TTITLE2=Southbound
TTITLE3=Sunday Morning
TTITLE4=How Long
TTITLE5=Believe
TTITLE6=Bad Mother trucker
TTITLE7=Remember
TTITLE8=The Vibe
TTITLE9=Deep Fried Twinkie
EXTD=
EXTT0=
EXTT1=
EXTT2=
EXTT3=
EXTT4=
EXTT5=
EXTT6=
EXTT7=
EXTT8=
EXTT9=
PLAYORDER=
